<?xml version="1.0" encoding="UTF-8"?>
<svg width="65px" height="70px" viewBox="0 0 65 73" version="1.1" xmlns="http://www.w3.org/2000/svg" xmlns:xlink="http://www.w3.org/1999/xlink">
    <title>Ic_Favicon</title>
    <g id="Colors" stroke="none" stroke-width="1" fill="none" fill-rule="evenodd">
        <g id="TheGallery---Id-Copy" transform="translate(-100.000000, -382.000000)" fill="#FFFFFF">
            <g id="Ic_Favicon" transform="translate(100.000000, 382.000000)">
                <path d="M28.4641065,58.2798351 C28.0232055,58.2798351 27.5803951,58.2434721 27.1452201,58.2858953 C17.4014991,59.2373879 8.50331555,56.8980486 0.588092644,50.6840547 C0.0651191641,50.2719433 -0.112386434,49.908317 0.0689364851,49.1830817 C1.17596067,44.7730855 2.93574712,40.6842937 5.30439704,36.8823639 C5.43991206,36.6662074 5.60023982,36.4662108 5.80255802,36.1833892 C7.75893691,38.9408994 9.7573066,41.5610416 12.2862842,43.625639 C12.3702653,43.5488732 12.4542464,43.4700853 12.5382275,43.3933195 C12.3740826,43.1286793 12.2175719,42.8599992 12.0457923,42.6014195 C8.19411168,36.8096378 5.67276911,30.4724144 4.88449154,23.3937944 C4.53711499,20.2706363 4.57337965,17.1636395 4.96656408,14.0586628 C5.00664599,13.7435188 5.31012304,13.293025 5.5754271,13.2101987 C9.98825456,11.8445745 14.4984238,11.4445847 19.075396,11.7738698 C19.1345646,11.7779101 19.1918244,11.8203334 19.3616954,11.8930589 C18.1325168,14.9980357 17.0006804,18.1454351 16.5273321,21.4928303 C16.6074959,21.5352535 16.6895692,21.5756556 16.769733,21.6180789 C16.94533,21.3110154 17.1495564,21.0180943 17.2927061,20.6928495 C21.2054639,11.8587159 27.0631476,5.02049436 35.4688966,0.778170869 C37.7039402,-0.351095272 37.6943965,-0.371296649 39.3663848,1.51956747 C41.9602569,4.45485124 44.0750544,7.74366274 45.7928505,11.3233756 C45.8921009,11.5294313 45.9627226,11.7516478 46.0982376,12.0970942 C42.8115212,12.6304149 39.5591593,13.0748485 36.5358382,14.444513 C36.5491988,14.5354199 36.5606531,14.6243059 36.5740138,14.7152129 C37.810827,14.6404672 39.0476406,14.5475397 40.2844538,14.4970358 C49.0891133,14.1334081 57.0959519,16.5777955 64.238166,22.1069573 C64.9195584,22.6342175 65.1485979,23.0826904 64.9061978,24.0059009 C63.7018319,28.5613481 61.8504276,32.7794307 59.2737334,36.7874164 C57.2257388,34.0763696 55.3228023,31.3309806 52.6945741,29.35729 C52.6296796,29.421935 52.5647872,29.4845591 52.4998927,29.5492041 C53.2862615,30.8380624 54.0955318,32.1107593 54.8532708,33.4157788 C57.1780215,37.4116436 58.766032,41.7347728 59.68219,46.3063812 C60.0791917,48.2861322 60.2242468,50.3426499 60.2872327,52.3708846 C60.3521272,54.4496231 60.1803473,56.5364406 60.1020922,58.6192195 C60.0810969,59.1707216 59.9837549,59.6313172 59.344353,59.8191915 C55.0307761,61.0797676 50.637036,61.4514745 46.1841268,61.2191568 C46.0333425,61.2110762 45.884467,61.1605748 45.6325235,61.1080508 C46.9552265,57.8333813 48.0870639,54.5607316 48.5527775,51.0860665 C48.4783397,51.0497037 48.4019946,51.0133423 48.3275567,50.9769795 C48.1290558,51.3931312 47.9171923,51.8011989 47.7320521,52.2234111 C44.1246804,60.4353376 38.7861534,66.9685204 31.1877684,71.2936702 C30.1036483,71.9118373 28.9718119,72.4451543 27.8361579,72.9501928 C27.5975751,73.057261 27.139496,72.9845374 26.9562644,72.8007034 C23.6714567,69.4735098 21.0833094,65.6049122 19.0715793,61.2959236 C19.0200455,61.182795 19.0105024,61.0494676 18.9570599,60.8252305 C22.2265983,60.3565547 25.44842,59.8373739 28.4641065,58.2798351 Z M32.5371912,21.1776852 C24.3528469,21.2039472 18.0848011,28.1128736 18.0638059,36.4702507 C18.0428106,44.6054111 24.1734351,51.7325141 32.4589382,51.756756 C40.8284223,51.783018 46.9571357,44.6074317 46.9571357,36.4742919 C46.955227,28.0522699 40.4810436,21.1534434 32.5371912,21.1776852 Z" id="Vector"></path>
            </g>
        </g>
    </g>
</svg>